<?xml version="1.0" encoding="UTF-8" standalone="no"?>
<svg xmlns="http://www.w3.org/2000/svg" viewBox="0 0 230 120">
  <g fill="#8dc63f" transform="translate(-4.11 -955.88) scale(4.16357)">
    <path d="M24.26 235.13a12.53 12.53 0 0 0-17.72 0 12.53 12.53 0 0 0 0 17.73 12.53 12.53 0 0 0 17.72 0 12.53 12.53 0 0 0 0-17.73zm-.89.89a11.28 11.28 0 0 1 0 15.95 11.28 11.28 0 0 1-15.95 0 11.28 11.28 0 0 1 0-15.95 11.28 11.28 0 0 1 15.95 0z"/>
    <circle cx="171.51" cy="161.64" r="2.51" transform="rotate(45)"/>
    <circle cx="183.42" cy="149.74" r="2.51" transform="rotate(45)"/>
    <circle cx="195.32" cy="161.64" r="2.51" transform="rotate(45)"/>
    <circle cx="183.42" cy="173.54" r="2.51" transform="rotate(45)"/>
    <circle cx="3.49" cy="243.99" r="2.51"/>
    <circle cx="15.4" cy="232.09" r="2.51"/>
    <circle cx="27.3" cy="243.99" r="2.51"/>
    <circle cx="15.4" cy="255.9" r="2.51"/>
  </g>
  <g>
    <path fill="#000000" d="M149.83 9.15l.63-.03q7.97-.38 16.85 8.5.35.77.37 1.08-.5 2.76-2.6 2.87-1.17.05-5.67-3.88-5.25-3.27-8.84-3.1l-.16.02q-7.65.37-8.84 19.38-.75 7.16-.61 9.97h.15l21.62-1.53q2.76.5 2.86 2.6.14 2.73-4.4 2.96-4.05.35-20.36 1.46-.32 12.77.68 33.24l.45 9.3q.15 3.12 1.08 15.68-.32 3.07-2.59 3.18-2.42.12-2.89-3.07-.87-11.39-1.04-15.06l-.5-10.23q-1.04-21.25-.73-32.62l-1.8.09q-3.37-.15-3.49-2.57-.11-2.42 3.23-2.9l2.1-.1q.8-15.86 2.07-20.46.42-5.81 5.7-11.7 3.6-2.92 6.73-3.08zm24.34 22.02q2.5 0 3.05 3.21-.86 3.36-3.36 3.36-3.05-.62-3.05-3.05.78-3.52 3.36-3.52zm.16 10.8q2.74.7 2.74 2.73l.31 62.88q-.63 2.74-2.74 2.74-2.73-.63-2.73-2.74l-.32-62.88q.63-2.73 2.74-2.73zM203.3 9.16l.63-.04q7.96-.42 16.89 8.43.35.76.37 1.07-.48 2.77-2.59 2.88-1.17.06-5.68-3.85-5.27-3.24-8.86-3.05h-.16q-7.65.41-8.76 19.42-.71 7.17-.56 9.98h.15l21.61-1.63q2.77.48 2.88 2.6.14 2.73-4.39 2.97-4.05.37-20.35 1.55-.27 12.78.82 33.24l.5 9.29q.16 3.12 1.14 15.68-.31 3.07-2.57 3.2-2.43.12-2.9-3.06-.92-11.39-1.12-15.06l-.54-10.23q-1.13-21.24-.87-32.61l-1.8.1q-3.37-.14-3.5-2.56-.13-2.42 3.21-2.91l2.11-.12q.73-15.86 1.97-20.46.4-5.82 5.64-11.74 3.6-2.93 6.73-3.1zm23.5 22.01q2.5 0 3.04 3.21-.86 3.36-3.36 3.36-3.05-.62-3.05-3.05.78-3.52 3.36-3.52zm.15 10.8q2.74.7 2.74 2.73l.31 62.88q-.63 2.74-2.74 2.74-2.73-.63-2.73-2.74l-.32-62.88q.63-2.73 2.74-2.73z"/>
  </g>
</svg>