<?xml version="1.0" encoding="UTF-8" standalone="no"?>
<svg xmlns="http://www.w3.org/2000/svg" viewBox="0 0 120 120">
  <g fill="#8dc63f" transform="translate(-4.11 -955.88) scale(4.16357)">
    <path d="M24.26 235.13a12.53 12.53 0 0 0-17.72 0 12.53 12.53 0 0 0 0 17.73 12.53 12.53 0 0 0 17.72 0 12.53 12.53 0 0 0 0-17.73zm-.89.89a11.28 11.28 0 0 1 0 15.95 11.28 11.28 0 0 1-15.95 0 11.28 11.28 0 0 1 0-15.95 11.28 11.28 0 0 1 15.95 0z"/>
    <circle cx="171.51" cy="161.64" r="2.51" transform="rotate(45)"/>
    <circle cx="183.42" cy="149.74" r="2.51" transform="rotate(45)"/>
    <circle cx="195.32" cy="161.64" r="2.51" transform="rotate(45)"/>
    <circle cx="183.42" cy="173.54" r="2.51" transform="rotate(45)"/>
    <circle cx="3.49" cy="243.99" r="2.51"/>
    <circle cx="15.4" cy="232.09" r="2.51"/>
    <circle cx="27.3" cy="243.99" r="2.51"/>
    <circle cx="15.4" cy="255.9" r="2.51"/>
  </g>
</svg>