<?xml version="1.0" encoding="UTF-8" standalone="no"?>
<svg xmlns:dc="http://purl.org/dc/elements/1.1/" xmlns:cc="http://creativecommons.org/ns#"
   xmlns:rdf="http://www.w3.org/1999/02/22-rdf-syntax-ns#" xmlns:svg="http://www.w3.org/2000/svg"
   xmlns="http://www.w3.org/2000/svg" xmlns:sodipodi="http://sodipodi.sourceforge.net/DTD/sodipodi-0.dtd"
   xmlns:inkscape="http://www.inkscape.org/namespaces/inkscape" id="Layer_1" data-name="Layer 1"
   viewBox="0 0 318.8 335.11624" version="1.1" sodipodi:docname="kodo_logo_text.svg"
   inkscape:version="0.92.5 (2060ec1f9f, 2020-04-08)">
   <metadata id="metadata33">
      <rdf:RDF>
         <cc:Work rdf:about="">
            <dc:format>image/svg+xml</dc:format>
            <dc:type rdf:resource="http://purl.org/dc/dcmitype/StillImage" />
            <dc:title></dc:title>
         </cc:Work>
      </rdf:RDF>
   </metadata>
   <sodipodi:namedview pagecolor="#ffffff" bordercolor="#666666" borderopacity="1" objecttolerance="10"
      gridtolerance="10" guidetolerance="10" inkscape:pageopacity="0" inkscape:pageshadow="2"
      inkscape:window-width="1440" inkscape:window-height="1243" id="namedview31" showgrid="false" showguides="false"
      inkscape:zoom="3.9827492" inkscape:cx="147.00589" inkscape:cy="69.162354" inkscape:window-x="0"
      inkscape:window-y="1280" inkscape:window-maximized="0" inkscape:current-layer="Layer_1"
      inkscape:pagecheckerboard="true" fit-margin-top="0" fit-margin-left="0" fit-margin-right="0"
      fit-margin-bottom="0" />
   <defs id="defs4">
      <style id="style2">
         .cls-1 {
            font-size: 38.7px;
            fill: #fff;
            font-family: Montserrat-Medium, Montserrat;
            font-weight: 500;
         }

         .cls-2 {
            letter-spacing: -0.02em;
         }

         .cls-3 {
            fill: #a771b9;
         }

         .cls-4 {
            fill: #ddc7e5;
         }
      </style>
   </defs>
   <g id="g984" transform="translate(-356.82631,78.085)">
      <rect id="rect12-5" rx="2.98" height="42.110001" width="42.110001" y="105.5552" x="440.62631" class="cls-3"
         style="fill:#a771b9;fill-opacity:1" />
      <rect style="fill:#ddc7e5" id="rect14-3" rx="2.98" height="42.110001" width="42.110001" y="105.5552" x="495.17133"
         class="cls-4" />
      <rect id="rect16-5" rx="2.98" height="42.110001" width="42.110001" y="105.5552" x="549.71631" class="cls-3"
         style="fill:#a771b9" />
      <rect transform="rotate(-90)" id="rect16-1" rx="2.98" height="42.110001" width="42.110001" y="440.62631"
         x="-38.575191" class="cls-3" style="fill:#a771b9" />
      <rect id="rect12-2" rx="2.98" height="42.110001" width="42.110001" y="51.010189" x="495.39835" class="cls-3"
         style="fill:#a771b9;fill-opacity:1" />
      <rect id="rect12-0" rx="2.98" height="42.110001" width="42.110001" y="-3.534811" x="549.71631" class="cls-3"
         style="fill:#a771b9;fill-opacity:1" />
      <rect transform="rotate(-90)" style="fill:#ddc7e5" id="rect14-9-3" rx="2.98" height="42.110001" width="42.110001"
         y="549.71631" x="-93.120201" class="cls-4" />
      <rect transform="rotate(-90)" style="fill:#ddc7e5" id="rect14-9-6" rx="2.98" height="42.110001" width="42.110001"
         y="494.96811" x="-38.575191" class="cls-4" />
      <rect id="rect12-2-0" rx="2.98" height="42.110001" width="42.110001" y="51.010189" x="440.62631" class="cls-3"
         style="fill:#a771b9;fill-opacity:1" />
   </g>
   <g aria-label="Kodo"
      style="font-weight:500;font-size:38.70000076px;font-family:Montserrat-Medium, Montserrat;fill:#ffffff" id="text10"
      transform="translate(-2.93929,11.636388)">
      <path
         d="m 122.77119,274.6843 -4.9536,5.031 v 7.0047 h -3.87 v -27.09 h 3.87 v 15.1317 l 14.706,-15.1317 h 4.4118 l -11.5713,12.1905 12.3066,14.8995 h -4.5279 z"
         style="letter-spacing:-0.02em" id="path828" inkscape:connector-curvature="0" />
      <path
         d="m 149.12069,286.9522 q -3.0573,0 -5.4954,-1.3545 -2.4381,-1.3545 -3.8313,-3.7152 -1.3545,-2.3994 -1.3545,-5.418 0,-3.0186 1.3545,-5.3793 1.3932,-2.3994 3.8313,-3.7152 2.4381,-1.3545 5.4954,-1.3545 3.0573,0 5.4567,1.3545 2.4381,1.3158 3.7926,3.7152 1.3932,2.3607 1.3932,5.3793 0,3.0186 -1.3932,5.418 -1.3545,2.3607 -3.7926,3.7152 -2.3994,1.3545 -5.4567,1.3545 z m 0,-3.2508 q 1.9737,0 3.5217,-0.8901 1.5867,-0.9288 2.4768,-2.5542 0.8901,-1.6641 0.8901,-3.7926 0,-2.1285 -0.8901,-3.7539 -0.8901,-1.6641 -2.4768,-2.5542 -1.548,-0.8901 -3.5217,-0.8901 -1.9737,0 -3.5604,0.8901 -1.548,0.8901 -2.4768,2.5542 -0.8901,1.6254 -0.8901,3.7539 0,2.1285 0.8901,3.7926 0.9288,1.6254 2.4768,2.5542 1.5867,0.8901 3.5604,0.8901 z"
         id="path830" inkscape:connector-curvature="0" />
      <path
         d="M 184.26022,258.0046 V 286.72 h -3.5604 v -3.2508 q -1.2384,1.7028 -3.1347,2.5929 -1.8963,0.8901 -4.1796,0.8901 -2.9799,0 -5.3406,-1.3158 -2.3607,-1.3158 -3.7152,-3.6765 -1.3158,-2.3994 -1.3158,-5.4954 0,-3.096 1.3158,-5.4567 1.3545,-2.3607 3.7152,-3.6765 2.3607,-1.3158 5.3406,-1.3158 2.2059,0 4.0635,0.8514 1.8576,0.8127 3.096,2.4381 v -11.3004 z m -10.5651,25.6968 q 1.935,0 3.5217,-0.8901 1.5867,-0.9288 2.4768,-2.5542 0.8901,-1.6641 0.8901,-3.7926 0,-2.1285 -0.8901,-3.7539 -0.8901,-1.6641 -2.4768,-2.5542 -1.5867,-0.8901 -3.5217,-0.8901 -1.9737,0 -3.5604,0.8901 -1.548,0.8901 -2.4768,2.5542 -0.8901,1.6254 -0.8901,3.7539 0,2.1285 0.8901,3.7926 0.9288,1.6254 2.4768,2.5542 1.5867,0.8901 3.5604,0.8901 z"
         id="path832" inkscape:connector-curvature="0" />
      <path
         d="m 200.08849,286.9522 q -3.0573,0 -5.4954,-1.3545 -2.4381,-1.3545 -3.8313,-3.7152 -1.3545,-2.3994 -1.3545,-5.418 0,-3.0186 1.3545,-5.3793 1.3932,-2.3994 3.8313,-3.7152 2.4381,-1.3545 5.4954,-1.3545 3.0573,0 5.4567,1.3545 2.4381,1.3158 3.7926,3.7152 1.3932,2.3607 1.3932,5.3793 0,3.0186 -1.3932,5.418 -1.3545,2.3607 -3.7926,3.7152 -2.3994,1.3545 -5.4567,1.3545 z m 0,-3.2508 q 1.9737,0 3.5217,-0.8901 1.5867,-0.9288 2.4768,-2.5542 0.8901,-1.6641 0.8901,-3.7926 0,-2.1285 -0.8901,-3.7539 -0.8901,-1.6641 -2.4768,-2.5542 -1.548,-0.8901 -3.5217,-0.8901 -1.9737,0 -3.5604,0.8901 -1.548,0.8901 -2.4768,2.5542 -0.8901,1.6254 -0.8901,3.7539 0,2.1285 0.8901,3.7926 0.9288,1.6254 2.4768,2.5542 1.5867,0.8901 3.5604,0.8901 z"
         id="path834" inkscape:connector-curvature="0" />
   </g>
</svg>