<?xml version="1.0" ?><svg style="enable-background:new 0 0 128 128;" version="1.1" viewBox="0 0 128 128" xml:space="preserve" xmlns="http://www.w3.org/2000/svg" xmlns:xlink="http://www.w3.org/1999/xlink"><style type="text/css">
	.st0{display:none;}
	.st1{display:inline;}
	.st2{fill:none;stroke:#000000;stroke-width:0.1;stroke-miterlimit:10;}
	.st3{fill:none;stroke:#000000;stroke-width:3;stroke-miterlimit:10;}
	.st4{fill:none;stroke:#000000;stroke-width:3;stroke-linecap:round;stroke-miterlimit:10;}
	.st5{fill:none;stroke:#000000;stroke-width:3;stroke-linecap:square;}
	.st6{fill:none;stroke:#000000;stroke-width:3;stroke-linecap:round;}
	.st7{fill:none;stroke:#000000;stroke-width:3;stroke-linecap:round;stroke-miterlimit:10;stroke-dasharray:5.2006,5.2006;}
	.st8{fill:none;stroke:#000000;stroke-width:3;stroke-linecap:round;stroke-miterlimit:10;stroke-dasharray:5.1764,5.1764;}
	.st9{fill:none;stroke:#000000;stroke-width:3;stroke-linecap:square;stroke-miterlimit:10;}
</style><g class="st0" id="Layer_1"><g class="st1" id="XMLID_1156_"><rect class="st2" height="128" id="XMLID_1219_" width="128"/><line class="st2" id="XMLID_1218_" x1="0" x2="128" y1="124" y2="124"/><line class="st2" id="XMLID_1217_" x1="0" x2="128" y1="120" y2="120"/><line class="st2" id="XMLID_1216_" x1="0" x2="128" y1="116" y2="116"/><line class="st2" id="XMLID_1215_" x1="0" x2="128" y1="112" y2="112"/><line class="st2" id="XMLID_1214_" x1="0" x2="128" y1="108" y2="108"/><line class="st2" id="XMLID_1213_" x1="0" x2="128" y1="104" y2="104"/><line class="st2" id="XMLID_1212_" x1="0" x2="128" y1="100" y2="100"/><line class="st2" id="XMLID_1211_" x1="0" x2="128" y1="96" y2="96"/><line class="st2" id="XMLID_1210_" x1="0" x2="128" y1="92" y2="92"/><line class="st2" id="XMLID_1209_" x1="0" x2="128" y1="88" y2="88"/><line class="st2" id="XMLID_1208_" x1="0" x2="128" y1="84" y2="84"/><line class="st2" id="XMLID_1207_" x1="0" x2="128" y1="80" y2="80"/><line class="st2" id="XMLID_1206_" x1="0" x2="128" y1="76" y2="76"/><line class="st2" id="XMLID_1205_" x1="0" x2="128" y1="72" y2="72"/><line class="st2" id="XMLID_1204_" x1="0" x2="128" y1="68" y2="68"/><line class="st2" id="XMLID_1203_" x1="0" x2="128" y1="64" y2="64"/><line class="st2" id="XMLID_1202_" x1="0" x2="128" y1="60" y2="60"/><line class="st2" id="XMLID_1201_" x1="0" x2="128" y1="56" y2="56"/><line class="st2" id="XMLID_1200_" x1="0" x2="128" y1="52" y2="52"/><line class="st2" id="XMLID_1199_" x1="0" x2="128" y1="48" y2="48"/><line class="st2" id="XMLID_1198_" x1="0" x2="128" y1="44" y2="44"/><line class="st2" id="XMLID_1197_" x1="0" x2="128" y1="40" y2="40"/><line class="st2" id="XMLID_1196_" x1="0" x2="128" y1="36" y2="36"/><line class="st2" id="XMLID_1195_" x1="0" x2="128" y1="32" y2="32"/><line class="st2" id="XMLID_1194_" x1="0" x2="128" y1="28" y2="28"/><line class="st2" id="XMLID_1193_" x1="0" x2="128" y1="24" y2="24"/><line class="st2" id="XMLID_1192_" x1="0" x2="128" y1="20" y2="20"/><line class="st2" id="XMLID_1191_" x1="0" x2="128" y1="16" y2="16"/><line class="st2" id="XMLID_1190_" x1="0" x2="128" y1="12" y2="12"/><line class="st2" id="XMLID_1189_" x1="0" x2="128" y1="8" y2="8"/><line class="st2" id="XMLID_1188_" x1="0" x2="128" y1="4" y2="4"/><line class="st2" id="XMLID_1187_" x1="124" x2="124" y1="0" y2="128"/><line class="st2" id="XMLID_1186_" x1="120" x2="120" y1="0" y2="128"/><line class="st2" id="XMLID_1185_" x1="116" x2="116" y1="0" y2="128"/><line class="st2" id="XMLID_1184_" x1="112" x2="112" y1="0" y2="128"/><line class="st2" id="XMLID_1183_" x1="108" x2="108" y1="0" y2="128"/><line class="st2" id="XMLID_1182_" x1="104" x2="104" y1="0" y2="128"/><line class="st2" id="XMLID_1181_" x1="100" x2="100" y1="0" y2="128"/><line class="st2" id="XMLID_1180_" x1="96" x2="96" y1="0" y2="128"/><line class="st2" id="XMLID_1179_" x1="92" x2="92" y1="0" y2="128"/><line class="st2" id="XMLID_1178_" x1="88" x2="88" y1="0" y2="128"/><line class="st2" id="XMLID_1177_" x1="84" x2="84" y1="0" y2="128"/><line class="st2" id="XMLID_1176_" x1="80" x2="80" y1="0" y2="128"/><line class="st2" id="XMLID_1175_" x1="76" x2="76" y1="0" y2="128"/><line class="st2" id="XMLID_1174_" x1="72" x2="72" y1="0" y2="128"/><line class="st2" id="XMLID_1173_" x1="68" x2="68" y1="0" y2="128"/><line class="st2" id="XMLID_1172_" x1="64" x2="64" y1="0" y2="128"/><line class="st2" id="XMLID_1171_" x1="60" x2="60" y1="0" y2="128"/><line class="st2" id="XMLID_1170_" x1="56" x2="56" y1="0" y2="128"/><line class="st2" id="XMLID_1169_" x1="52" x2="52" y1="0" y2="128"/><line class="st2" id="XMLID_1168_" x1="48" x2="48" y1="0" y2="128"/><line class="st2" id="XMLID_1167_" x1="44" x2="44" y1="0" y2="128"/><line class="st2" id="XMLID_1166_" x1="40" x2="40" y1="0" y2="128"/><line class="st2" id="XMLID_1165_" x1="36" x2="36" y1="0" y2="128"/><line class="st2" id="XMLID_1164_" x1="32" x2="32" y1="0" y2="128"/><line class="st2" id="XMLID_1163_" x1="28" x2="28" y1="0" y2="128"/><line class="st2" id="XMLID_1162_" x1="24" x2="24" y1="0" y2="128"/><line class="st2" id="XMLID_1161_" x1="20" x2="20" y1="0" y2="128"/><line class="st2" id="XMLID_1160_" x1="16" x2="16" y1="0" y2="128"/><line class="st2" id="XMLID_1159_" x1="12" x2="12" y1="0" y2="128"/><line class="st2" id="XMLID_1158_" x1="8" x2="8" y1="0" y2="128"/><line class="st2" id="XMLID_1157_" x1="4" x2="4" y1="0" y2="128"/></g></g><g class="st0" id="Layer_2"/><g id="Layer_3"><g id="art_board_15"><g id="XMLID_4344_"><path class="st3" d="M47.3,34.7c0.1-4.5,3.9-8.2,8.6-8.2c1.1,0,2.1,0.2,3,0.5c1.4-3.1,4.3-5.2,7.7-5.2     c4.7,0,8.6,4.2,8.6,9.3c0,1.2-0.2,2.2-0.5,3.3h2.9c4.7,0,8.6,4.2,8.6,9.3l0,0c0,3.1-2.3,5.6-5.2,5.6h-35c-2.8,0-5.2-2.5-5.2-5.6     l0,0C40.8,39.4,43.6,35.7,47.3,34.7z" id="XMLID_4345_"/></g><line class="st4" id="XMLID_4329_" x1="63.7" x2="63.7" y1="52.8" y2="57.4"/><rect class="st4" height="6.6" id="XMLID_4328_" width="8.7" x="59.3" y="58.4"/><polyline class="st4" id="XMLID_4330_" points="68.9,61.7 94.2,61.7 94.2,72.8   "/><polyline class="st4" id="XMLID_4155_" points="58.5,61.7 33.2,61.7 33.2,72.8   "/><g id="XMLID_4368_"><line class="st4" id="XMLID_4372_" x1="87.7" x2="101.3" y1="106.2" y2="106.2"/><path class="st4" d="M110.3,100.8H78.6c-0.9,0-1.6-0.7-1.6-1.6V75.4c0-0.9,0.7-1.6,1.6-1.6h31.7     c0.9,0,1.6,0.7,1.6,1.6v23.8C112,100.1,111.3,100.8,110.3,100.8z" id="XMLID_4371_"/><line class="st4" id="XMLID_4370_" x1="77.6" x2="111.4" y1="95.4" y2="95.4"/><line class="st4" id="XMLID_4369_" x1="94.5" x2="94.5" y1="101.8" y2="106.2"/></g><g id="XMLID_4360_"><line class="st4" id="XMLID_4364_" x1="26.7" x2="40.3" y1="106.2" y2="106.2"/><path class="st4" d="M49.3,100.8H17.6c-0.9,0-1.6-0.7-1.6-1.6V75.4c0-0.9,0.7-1.6,1.6-1.6h31.7     c0.9,0,1.6,0.7,1.6,1.6v23.8C51,100.1,50.3,100.8,49.3,100.8z" id="XMLID_4363_"/><line class="st4" id="XMLID_4362_" x1="16.6" x2="50.4" y1="95.4" y2="95.4"/><line class="st4" id="XMLID_4361_" x1="33.5" x2="33.5" y1="101.8" y2="106.2"/></g></g></g></svg>