<?xml version="1.0" ?><svg style="enable-background:new 0 0 128 128;" version="1.1" viewBox="0 0 128 128" xml:space="preserve" xmlns="http://www.w3.org/2000/svg" xmlns:xlink="http://www.w3.org/1999/xlink"><style type="text/css">
	.st0{display:none;}
	.st1{display:inline;}
	.st2{fill:none;stroke:#000000;stroke-width:0.1;stroke-miterlimit:10;}
	.st3{fill:none;stroke:#000000;stroke-width:3;stroke-miterlimit:10;}
	.st4{fill:none;stroke:#000000;stroke-width:3;stroke-linecap:round;stroke-miterlimit:10;}
	.st5{fill:none;stroke:#000000;stroke-width:3;stroke-linecap:square;}
	.st6{fill:none;stroke:#000000;stroke-width:3;stroke-linecap:round;}
	.st7{fill:none;stroke:#000000;stroke-width:3;stroke-linecap:round;stroke-miterlimit:10;stroke-dasharray:5.2006,5.2006;}
	.st8{fill:none;stroke:#000000;stroke-width:3;stroke-linecap:round;stroke-miterlimit:10;stroke-dasharray:5.1764,5.1764;}
	.st9{fill:none;stroke:#000000;stroke-width:3;stroke-linecap:square;stroke-miterlimit:10;}
</style><g class="st0" id="Layer_1"><g class="st1" id="XMLID_1618_"><rect class="st2" height="128" id="XMLID_1681_" width="128"/><line class="st2" id="XMLID_1680_" x1="0" x2="128" y1="124" y2="124"/><line class="st2" id="XMLID_1679_" x1="0" x2="128" y1="120" y2="120"/><line class="st2" id="XMLID_1678_" x1="0" x2="128" y1="116" y2="116"/><line class="st2" id="XMLID_1677_" x1="0" x2="128" y1="112" y2="112"/><line class="st2" id="XMLID_1676_" x1="0" x2="128" y1="108" y2="108"/><line class="st2" id="XMLID_1675_" x1="0" x2="128" y1="104" y2="104"/><line class="st2" id="XMLID_1674_" x1="0" x2="128" y1="100" y2="100"/><line class="st2" id="XMLID_1673_" x1="0" x2="128" y1="96" y2="96"/><line class="st2" id="XMLID_1672_" x1="0" x2="128" y1="92" y2="92"/><line class="st2" id="XMLID_1671_" x1="0" x2="128" y1="88" y2="88"/><line class="st2" id="XMLID_1670_" x1="0" x2="128" y1="84" y2="84"/><line class="st2" id="XMLID_1669_" x1="0" x2="128" y1="80" y2="80"/><line class="st2" id="XMLID_1668_" x1="0" x2="128" y1="76" y2="76"/><line class="st2" id="XMLID_1667_" x1="0" x2="128" y1="72" y2="72"/><line class="st2" id="XMLID_1666_" x1="0" x2="128" y1="68" y2="68"/><line class="st2" id="XMLID_1665_" x1="0" x2="128" y1="64" y2="64"/><line class="st2" id="XMLID_1664_" x1="0" x2="128" y1="60" y2="60"/><line class="st2" id="XMLID_1663_" x1="0" x2="128" y1="56" y2="56"/><line class="st2" id="XMLID_1662_" x1="0" x2="128" y1="52" y2="52"/><line class="st2" id="XMLID_1661_" x1="0" x2="128" y1="48" y2="48"/><line class="st2" id="XMLID_1660_" x1="0" x2="128" y1="44" y2="44"/><line class="st2" id="XMLID_1659_" x1="0" x2="128" y1="40" y2="40"/><line class="st2" id="XMLID_1658_" x1="0" x2="128" y1="36" y2="36"/><line class="st2" id="XMLID_1657_" x1="0" x2="128" y1="32" y2="32"/><line class="st2" id="XMLID_1656_" x1="0" x2="128" y1="28" y2="28"/><line class="st2" id="XMLID_1655_" x1="0" x2="128" y1="24" y2="24"/><line class="st2" id="XMLID_1654_" x1="0" x2="128" y1="20" y2="20"/><line class="st2" id="XMLID_1653_" x1="0" x2="128" y1="16" y2="16"/><line class="st2" id="XMLID_1652_" x1="0" x2="128" y1="12" y2="12"/><line class="st2" id="XMLID_1651_" x1="0" x2="128" y1="8" y2="8"/><line class="st2" id="XMLID_1650_" x1="0" x2="128" y1="4" y2="4"/><line class="st2" id="XMLID_1649_" x1="124" x2="124" y1="0" y2="128"/><line class="st2" id="XMLID_1648_" x1="120" x2="120" y1="0" y2="128"/><line class="st2" id="XMLID_1647_" x1="116" x2="116" y1="0" y2="128"/><line class="st2" id="XMLID_1646_" x1="112" x2="112" y1="0" y2="128"/><line class="st2" id="XMLID_1645_" x1="108" x2="108" y1="0" y2="128"/><line class="st2" id="XMLID_1644_" x1="104" x2="104" y1="0" y2="128"/><line class="st2" id="XMLID_1643_" x1="100" x2="100" y1="0" y2="128"/><line class="st2" id="XMLID_1642_" x1="96" x2="96" y1="0" y2="128"/><line class="st2" id="XMLID_1641_" x1="92" x2="92" y1="0" y2="128"/><line class="st2" id="XMLID_1640_" x1="88" x2="88" y1="0" y2="128"/><line class="st2" id="XMLID_1639_" x1="84" x2="84" y1="0" y2="128"/><line class="st2" id="XMLID_1638_" x1="80" x2="80" y1="0" y2="128"/><line class="st2" id="XMLID_1637_" x1="76" x2="76" y1="0" y2="128"/><line class="st2" id="XMLID_1636_" x1="72" x2="72" y1="0" y2="128"/><line class="st2" id="XMLID_1635_" x1="68" x2="68" y1="0" y2="128"/><line class="st2" id="XMLID_1634_" x1="64" x2="64" y1="0" y2="128"/><line class="st2" id="XMLID_1633_" x1="60" x2="60" y1="0" y2="128"/><line class="st2" id="XMLID_1632_" x1="56" x2="56" y1="0" y2="128"/><line class="st2" id="XMLID_1631_" x1="52" x2="52" y1="0" y2="128"/><line class="st2" id="XMLID_1630_" x1="48" x2="48" y1="0" y2="128"/><line class="st2" id="XMLID_1629_" x1="44" x2="44" y1="0" y2="128"/><line class="st2" id="XMLID_1628_" x1="40" x2="40" y1="0" y2="128"/><line class="st2" id="XMLID_1627_" x1="36" x2="36" y1="0" y2="128"/><line class="st2" id="XMLID_1626_" x1="32" x2="32" y1="0" y2="128"/><line class="st2" id="XMLID_1625_" x1="28" x2="28" y1="0" y2="128"/><line class="st2" id="XMLID_1624_" x1="24" x2="24" y1="0" y2="128"/><line class="st2" id="XMLID_1623_" x1="20" x2="20" y1="0" y2="128"/><line class="st2" id="XMLID_1622_" x1="16" x2="16" y1="0" y2="128"/><line class="st2" id="XMLID_1621_" x1="12" x2="12" y1="0" y2="128"/><line class="st2" id="XMLID_1620_" x1="8" x2="8" y1="0" y2="128"/><line class="st2" id="XMLID_1619_" x1="4" x2="4" y1="0" y2="128"/></g></g><g class="st0" id="Layer_2"/><g id="Layer_3"><g id="art_board_21"><g id="XMLID_2445_"><line class="st4" id="XMLID_2446_" x1="96.6" x2="69.9" y1="88.2" y2="103.3"/><line class="st4" id="XMLID_2447_" x1="101.1" x2="101.2" y1="48.3" y2="80.1"/><line class="st4" id="XMLID_2448_" x1="69.1" x2="96" y1="23.6" y2="39.6"/><line class="st4" id="XMLID_2449_" x1="31.5" x2="59.2" y1="40" y2="23.9"/><line class="st4" id="XMLID_2450_" x1="26.9" x2="26.8" y1="80.2" y2="47.9"/><line class="st4" id="XMLID_2451_" x1="59.1" x2="31.4" y1="104.2" y2="89.3"/><path class="st4" d="M31.4,88.6c-0.4,0.6-1,1.2-1.7,1.6c-2.5,1.5-5.7,0.6-7.2-1.9c-1.5-2.5-0.6-5.7,1.9-7.2     s5.7-0.6,7.2,1.9C32.7,84.8,32.5,86.9,31.4,88.6" id="XMLID_2452_"/><ellipse class="st4" cx="27" cy="42.6" id="XMLID_2453_" rx="5.2" ry="5.2" transform="matrix(0.8645 -0.5026 0.5026 0.8645 -17.7519 19.334)"/><ellipse class="st4" cx="64.3" cy="106.8" id="XMLID_2454_" rx="5.2" ry="5.2" transform="matrix(0.8645 -0.5026 0.5026 0.8645 -44.9464 46.775)"/><ellipse class="st4" cx="63.7" cy="21.2" id="XMLID_2455_" rx="5.2" ry="5.2" transform="matrix(0.8645 -0.5026 0.5026 0.8645 -2.045 34.8999)"/><ellipse class="st4" cx="101" cy="85.4" id="XMLID_2456_" rx="5.2" ry="5.2" transform="matrix(0.8645 -0.5026 0.5026 0.8645 -29.2394 62.3408)"/><ellipse class="st4" cx="100.8" cy="42.8" id="XMLID_2457_" rx="5.2" ry="5.2" transform="matrix(0.8645 -0.5026 0.5026 0.8645 -7.8345 56.4495)"/></g><g id="XMLID_4638_"><ellipse class="st4" cx="64.1" cy="64.1" id="XMLID_4637_" rx="0.9" ry="1.1" transform="matrix(0.7071 -0.7071 0.7071 0.7071 -26.5373 64.0826)"/><path class="st4" d="M70.8,63.6c0,0.6,0.2,3.6-2,5.6c-1.9,1.7-4.5,1.6-5.1,1.6" id="XMLID_4636_"/><path class="st4" d="M78.3,63.2c0.1,1.1,0.7,7.4-3.9,11.7c-4.3,4-10,3.6-11.2,3.4" id="XMLID_4635_"/><path class="st4" d="M84.9,62.3c0.2,1.5,1.4,11.2-5.6,17.8c-6.5,6.1-15.2,5-16.9,4.8" id="XMLID_4634_"/><path class="st4" d="M57.2,64.4c-0.1-0.7-0.2-3.2,1.6-5.1c2-2.3,5-2.1,5.6-2" id="XMLID_4645_"/><path class="st4" d="M49.7,64.8c-0.1-1.2-0.6-7,3.4-11.2c4.3-4.6,10.6-4,11.7-3.9" id="XMLID_4644_"/><path class="st4" d="M43.1,65.6c-0.2-1.7-1.3-10.5,4.8-16.9c6.5-7,16.2-5.8,17.8-5.6" id="XMLID_4643_"/></g></g></g></svg>