<?xml version="1.0" ?><svg style="enable-background:new 0 0 128 128;" version="1.1" viewBox="0 0 128 128" xml:space="preserve" xmlns="http://www.w3.org/2000/svg" xmlns:xlink="http://www.w3.org/1999/xlink"><style type="text/css">
	.st0{display:none;}
	.st1{display:inline;}
	.st2{fill:none;stroke:#000000;stroke-width:0.1;stroke-miterlimit:10;}
	.st3{fill:none;stroke:#000000;stroke-width:3;stroke-miterlimit:10;}
	.st4{fill:none;stroke:#000000;stroke-width:3;stroke-linecap:round;stroke-miterlimit:10;}
	.st5{fill:none;stroke:#000000;stroke-width:3;stroke-linecap:square;}
	.st6{fill:none;stroke:#000000;stroke-width:3;stroke-linecap:round;}
	.st7{fill:none;stroke:#000000;stroke-width:3;stroke-linecap:round;stroke-miterlimit:10;stroke-dasharray:5.2006,5.2006;}
	.st8{fill:none;stroke:#000000;stroke-width:3;stroke-linecap:round;stroke-miterlimit:10;stroke-dasharray:5.1764,5.1764;}
	.st9{fill:none;stroke:#000000;stroke-width:3;stroke-linecap:square;stroke-miterlimit:10;}
</style><g class="st0" id="Layer_1"><g class="st1" id="XMLID_2080_"><rect class="st2" height="128" id="XMLID_2143_" width="128"/><line class="st2" id="XMLID_2142_" x1="0" x2="128" y1="124" y2="124"/><line class="st2" id="XMLID_2141_" x1="0" x2="128" y1="120" y2="120"/><line class="st2" id="XMLID_2140_" x1="0" x2="128" y1="116" y2="116"/><line class="st2" id="XMLID_2139_" x1="0" x2="128" y1="112" y2="112"/><line class="st2" id="XMLID_2138_" x1="0" x2="128" y1="108" y2="108"/><line class="st2" id="XMLID_2137_" x1="0" x2="128" y1="104" y2="104"/><line class="st2" id="XMLID_2136_" x1="0" x2="128" y1="100" y2="100"/><line class="st2" id="XMLID_2135_" x1="0" x2="128" y1="96" y2="96"/><line class="st2" id="XMLID_2134_" x1="0" x2="128" y1="92" y2="92"/><line class="st2" id="XMLID_2133_" x1="0" x2="128" y1="88" y2="88"/><line class="st2" id="XMLID_2132_" x1="0" x2="128" y1="84" y2="84"/><line class="st2" id="XMLID_2131_" x1="0" x2="128" y1="80" y2="80"/><line class="st2" id="XMLID_2130_" x1="0" x2="128" y1="76" y2="76"/><line class="st2" id="XMLID_2129_" x1="0" x2="128" y1="72" y2="72"/><line class="st2" id="XMLID_2128_" x1="0" x2="128" y1="68" y2="68"/><line class="st2" id="XMLID_2127_" x1="0" x2="128" y1="64" y2="64"/><line class="st2" id="XMLID_2126_" x1="0" x2="128" y1="60" y2="60"/><line class="st2" id="XMLID_2125_" x1="0" x2="128" y1="56" y2="56"/><line class="st2" id="XMLID_2124_" x1="0" x2="128" y1="52" y2="52"/><line class="st2" id="XMLID_2123_" x1="0" x2="128" y1="48" y2="48"/><line class="st2" id="XMLID_2122_" x1="0" x2="128" y1="44" y2="44"/><line class="st2" id="XMLID_2121_" x1="0" x2="128" y1="40" y2="40"/><line class="st2" id="XMLID_2120_" x1="0" x2="128" y1="36" y2="36"/><line class="st2" id="XMLID_2119_" x1="0" x2="128" y1="32" y2="32"/><line class="st2" id="XMLID_2118_" x1="0" x2="128" y1="28" y2="28"/><line class="st2" id="XMLID_2117_" x1="0" x2="128" y1="24" y2="24"/><line class="st2" id="XMLID_2116_" x1="0" x2="128" y1="20" y2="20"/><line class="st2" id="XMLID_2115_" x1="0" x2="128" y1="16" y2="16"/><line class="st2" id="XMLID_2114_" x1="0" x2="128" y1="12" y2="12"/><line class="st2" id="XMLID_2113_" x1="0" x2="128" y1="8" y2="8"/><line class="st2" id="XMLID_2112_" x1="0" x2="128" y1="4" y2="4"/><line class="st2" id="XMLID_2111_" x1="124" x2="124" y1="0" y2="128"/><line class="st2" id="XMLID_2110_" x1="120" x2="120" y1="0" y2="128"/><line class="st2" id="XMLID_2109_" x1="116" x2="116" y1="0" y2="128"/><line class="st2" id="XMLID_2108_" x1="112" x2="112" y1="0" y2="128"/><line class="st2" id="XMLID_2107_" x1="108" x2="108" y1="0" y2="128"/><line class="st2" id="XMLID_2106_" x1="104" x2="104" y1="0" y2="128"/><line class="st2" id="XMLID_2105_" x1="100" x2="100" y1="0" y2="128"/><line class="st2" id="XMLID_2104_" x1="96" x2="96" y1="0" y2="128"/><line class="st2" id="XMLID_2103_" x1="92" x2="92" y1="0" y2="128"/><line class="st2" id="XMLID_2102_" x1="88" x2="88" y1="0" y2="128"/><line class="st2" id="XMLID_2101_" x1="84" x2="84" y1="0" y2="128"/><line class="st2" id="XMLID_2100_" x1="80" x2="80" y1="0" y2="128"/><line class="st2" id="XMLID_2099_" x1="76" x2="76" y1="0" y2="128"/><line class="st2" id="XMLID_2098_" x1="72" x2="72" y1="0" y2="128"/><line class="st2" id="XMLID_2097_" x1="68" x2="68" y1="0" y2="128"/><line class="st2" id="XMLID_2096_" x1="64" x2="64" y1="0" y2="128"/><line class="st2" id="XMLID_2095_" x1="60" x2="60" y1="0" y2="128"/><line class="st2" id="XMLID_2094_" x1="56" x2="56" y1="0" y2="128"/><line class="st2" id="XMLID_2093_" x1="52" x2="52" y1="0" y2="128"/><line class="st2" id="XMLID_2092_" x1="48" x2="48" y1="0" y2="128"/><line class="st2" id="XMLID_2091_" x1="44" x2="44" y1="0" y2="128"/><line class="st2" id="XMLID_2090_" x1="40" x2="40" y1="0" y2="128"/><line class="st2" id="XMLID_2089_" x1="36" x2="36" y1="0" y2="128"/><line class="st2" id="XMLID_2088_" x1="32" x2="32" y1="0" y2="128"/><line class="st2" id="XMLID_2087_" x1="28" x2="28" y1="0" y2="128"/><line class="st2" id="XMLID_2086_" x1="24" x2="24" y1="0" y2="128"/><line class="st2" id="XMLID_2085_" x1="20" x2="20" y1="0" y2="128"/><line class="st2" id="XMLID_2084_" x1="16" x2="16" y1="0" y2="128"/><line class="st2" id="XMLID_2083_" x1="12" x2="12" y1="0" y2="128"/><line class="st2" id="XMLID_2082_" x1="8" x2="8" y1="0" y2="128"/><line class="st2" id="XMLID_2081_" x1="4" x2="4" y1="0" y2="128"/></g></g><g class="st0" id="Layer_2"/><g id="Layer_3"><g id="art_board_27"><g id="Layer_2_13_"><g id="XMLID_2507_"><rect class="st3" height="39.5" id="XMLID_2508_" width="39.5" x="43.7" y="61.2"/><g id="XMLID_2509_"><line class="st3" id="XMLID_2510_" x1="59.4" x2="59.4" y1="53.4" y2="60.4"/><line class="st3" id="XMLID_2511_" x1="67.5" x2="67.5" y1="53.4" y2="60.4"/><line class="st3" id="XMLID_2512_" x1="75.5" x2="75.5" y1="53.4" y2="60.4"/><line class="st3" id="XMLID_2513_" x1="51.3" x2="51.3" y1="53.4" y2="60.4"/></g><g id="XMLID_2514_"><line class="st3" id="XMLID_2515_" x1="91.1" x2="84.2" y1="76.9" y2="76.9"/><line class="st3" id="XMLID_2516_" x1="91.1" x2="84.2" y1="85" y2="85"/><line class="st3" id="XMLID_2517_" x1="91.1" x2="84.2" y1="93.1" y2="93.1"/><line class="st3" id="XMLID_2518_" x1="91.1" x2="84.2" y1="68.9" y2="68.9"/></g><g id="XMLID_2519_"><line class="st3" id="XMLID_2520_" x1="42.9" x2="36" y1="76.9" y2="76.9"/><line class="st3" id="XMLID_2521_" x1="42.9" x2="36" y1="85" y2="85"/><line class="st3" id="XMLID_2522_" x1="42.9" x2="36" y1="93.1" y2="93.1"/><line class="st3" id="XMLID_2523_" x1="42.9" x2="36" y1="68.9" y2="68.9"/></g><g id="XMLID_2524_"><line class="st3" id="XMLID_2525_" x1="59.4" x2="59.4" y1="101.7" y2="108.6"/><line class="st3" id="XMLID_2526_" x1="67.5" x2="67.5" y1="101.7" y2="108.6"/><line class="st3" id="XMLID_2527_" x1="75.5" x2="75.5" y1="101.7" y2="108.6"/><line class="st3" id="XMLID_2528_" x1="51.3" x2="51.3" y1="101.7" y2="108.6"/></g><rect class="st3" height="25.2" id="XMLID_2529_" width="25.2" x="50.8" y="68.3"/></g></g><g id="XMLID_2506_"><path class="st3" d="M32.8,77.1h-5.5c-6,0-10.8-5.3-10.8-11.7l0,0c0-9.1,5.9-16.9,13.7-18.9     c0.1-9.5,8.1-17.2,18-17.2c2.3,0,4.4,0.4,6.4,1.1c2.9-6.5,9-10.9,16.1-10.9c9.9,0,18,8.8,18,19.6c0,2.4-0.4,4.7-1.1,6.8h6.1     c9.9,0,18,8.8,18,19.6l0,0c0,6.4-4.9,11.7-10.8,11.7h-5.2" id="XMLID_2530_"/></g></g></g></svg>